<svg width="114" height="114" viewBox="0 0 114 114" fill="none" xmlns="http://www.w3.org/2000/svg">
<path d="M0.881296 47.0155C3.24995 33.7023 10.2745 21.6647 20.7002 13.0532C31.1259 4.44161 44.2736 -0.182954 57.7947 0.00555911C71.3157 0.19408 84.3293 5.1834 94.5109 14.0823C104.692 22.9811 111.379 35.2099 113.375 48.584L57 57L0.881296 47.0155Z" fill="white"/>
<circle cx="56.6138" cy="56.7318" r="44.9512" fill="#08AFDD"/>
<path d="M51.0196 53.0135C50.017 53.0135 49.153 52.8482 48.4276 52.5175C47.7023 52.1868 47.137 51.7015 46.7316 51.0615C46.337 50.4215 46.1183 49.6268 46.0756 48.6775C46.065 48.2402 46.0596 47.7708 46.0596 47.2695C46.0596 46.7682 46.065 46.2882 46.0756 45.8295C46.1183 44.9015 46.3423 44.1122 46.7476 43.4615C47.153 42.8108 47.7183 42.3202 48.4436 41.9895C49.169 41.6588 50.0276 41.4935 51.0196 41.4935C51.7236 41.4935 52.3743 41.5842 52.9716 41.7655C53.569 41.9362 54.0916 42.1922 54.5396 42.5335C54.9876 42.8642 55.3343 43.2695 55.5796 43.7495C55.8356 44.2188 55.969 44.7522 55.9796 45.3495C55.9903 45.4455 55.9583 45.5255 55.8836 45.5895C55.8196 45.6535 55.7396 45.6855 55.6436 45.6855H53.4836C53.345 45.6855 53.2383 45.6588 53.1636 45.6055C53.089 45.5415 53.025 45.4295 52.9716 45.2695C52.8223 44.7042 52.577 44.3202 52.2356 44.1175C51.905 43.9042 51.4943 43.7975 51.0036 43.7975C50.417 43.7975 49.953 43.9628 49.6116 44.2935C49.2703 44.6135 49.0836 45.1522 49.0516 45.9095C49.0196 46.7842 49.0196 47.6802 49.0516 48.5975C49.0836 49.3548 49.2703 49.8988 49.6116 50.2295C49.953 50.5495 50.417 50.7095 51.0036 50.7095C51.4943 50.7095 51.9103 50.6028 52.2516 50.3895C52.593 50.1762 52.833 49.7922 52.9716 49.2375C53.0143 49.0775 53.073 48.9708 53.1476 48.9175C53.233 48.8535 53.345 48.8215 53.4836 48.8215H55.6436C55.7396 48.8215 55.8196 48.8535 55.8836 48.9175C55.9583 48.9815 55.9903 49.0615 55.9796 49.1575C55.969 49.7548 55.8356 50.2935 55.5796 50.7735C55.3343 51.2428 54.9876 51.6482 54.5396 51.9895C54.0916 52.3202 53.569 52.5762 52.9716 52.7575C52.3743 52.9282 51.7236 53.0135 51.0196 53.0135ZM62.238 53.0135C61.2567 53.0135 60.4033 52.8535 59.678 52.5335C58.9527 52.2135 58.3873 51.7335 57.982 51.0935C57.5767 50.4428 57.3527 49.6322 57.31 48.6615C57.2993 48.2028 57.294 47.7442 57.294 47.2855C57.294 46.8162 57.2993 46.3522 57.31 45.8935C57.3527 44.9335 57.5767 44.1282 57.982 43.4775C58.398 42.8162 58.9687 42.3202 59.694 41.9895C60.43 41.6588 61.278 41.4935 62.238 41.4935C63.2087 41.4935 64.0567 41.6588 64.782 41.9895C65.5073 42.3202 66.078 42.8162 66.494 43.4775C66.91 44.1282 67.134 44.9335 67.166 45.8935C67.1873 46.3522 67.198 46.8162 67.198 47.2855C67.198 47.7442 67.1873 48.2028 67.166 48.6615C67.134 49.6322 66.91 50.4428 66.494 51.0935C66.0887 51.7335 65.5233 52.2135 64.798 52.5335C64.0727 52.8535 63.2193 53.0135 62.238 53.0135ZM62.238 50.7095C62.8033 50.7095 63.262 50.5388 63.614 50.1975C63.9767 49.8562 64.1687 49.3122 64.19 48.5655C64.2113 48.0962 64.222 47.6535 64.222 47.2375C64.222 46.8215 64.2113 46.3895 64.19 45.9415C64.1687 45.4402 64.0727 45.0348 63.902 44.7255C63.742 44.4055 63.518 44.1708 63.23 44.0215C62.942 43.8722 62.6113 43.7975 62.238 43.7975C61.8753 43.7975 61.55 43.8722 61.262 44.0215C60.974 44.1708 60.7447 44.4055 60.574 44.7255C60.4033 45.0348 60.3073 45.4402 60.286 45.9415C60.2753 46.3895 60.27 46.8215 60.27 47.2375C60.27 47.6535 60.2753 48.0962 60.286 48.5655C60.318 49.3122 60.51 49.8562 60.862 50.1975C61.2247 50.5388 61.6833 50.7095 62.238 50.7095ZM44.9686 71.0135C44.1472 71.0135 43.4379 70.9175 42.8406 70.7255C42.2539 70.5228 41.7739 70.2668 41.4006 69.9575C41.0272 69.6375 40.7499 69.3015 40.5686 68.9495C40.3872 68.5868 40.2912 68.2402 40.2806 67.9095C40.2806 67.8135 40.3126 67.7335 40.3766 67.6695C40.4512 67.6055 40.5366 67.5735 40.6326 67.5735H42.7286C42.8459 67.5735 42.9419 67.6002 43.0166 67.6535C43.0912 67.6962 43.1606 67.7708 43.2246 67.8775C43.3099 68.0802 43.4326 68.2455 43.5926 68.3735C43.7632 68.5015 43.9659 68.5922 44.2006 68.6455C44.4352 68.6882 44.6912 68.7095 44.9686 68.7095C45.5126 68.7095 45.9339 68.5868 46.2326 68.3415C46.5419 68.0855 46.6966 67.7388 46.6966 67.3015C46.6966 66.8428 46.5526 66.5175 46.2646 66.3255C45.9766 66.1228 45.5659 66.0215 45.0326 66.0215H43.2566C43.1392 66.0215 43.0432 65.9842 42.9686 65.9095C42.8939 65.8348 42.8566 65.7388 42.8566 65.6215V64.7255C42.8566 64.5975 42.8832 64.4855 42.9366 64.3895C42.9899 64.2935 43.0486 64.2242 43.1126 64.1815L45.7366 61.9575H41.2886C41.1819 61.9575 41.0859 61.9202 41.0006 61.8455C40.9259 61.7708 40.8886 61.6748 40.8886 61.5575V60.0535C40.8886 59.9362 40.9259 59.8402 41.0006 59.7655C41.0859 59.6908 41.1819 59.6535 41.2886 59.6535H48.6486C48.7659 59.6535 48.8619 59.6908 48.9366 59.7655C49.0219 59.8402 49.0646 59.9362 49.0646 60.0535V61.4135C49.0646 61.5308 49.0379 61.6375 48.9846 61.7335C48.9312 61.8188 48.8726 61.8882 48.8086 61.9415L46.3766 64.1975L46.4886 64.2295C47.1072 64.3042 47.6512 64.4642 48.1206 64.7095C48.6006 64.9548 48.9792 65.3068 49.2566 65.7655C49.5339 66.2135 49.6726 66.7842 49.6726 67.4775C49.6726 68.2028 49.4646 68.8322 49.0486 69.3655C48.6432 69.8882 48.0886 70.2935 47.3846 70.5815C46.6806 70.8695 45.8752 71.0135 44.9686 71.0135ZM53.0994 70.8535C53.0034 70.8535 52.9234 70.8215 52.8594 70.7575C52.7954 70.6828 52.7634 70.5975 52.7634 70.5015C52.7634 70.4482 52.7688 70.4055 52.7794 70.3735C52.8008 70.3415 52.8168 70.3148 52.8274 70.2935L55.0834 67.2055C54.9341 67.2375 54.7794 67.2535 54.6194 67.2535C54.1394 67.2215 53.6701 67.1148 53.2114 66.9335C52.7528 66.7415 52.3368 66.4855 51.9634 66.1655C51.6008 65.8348 51.3128 65.4455 51.0994 64.9975C50.8861 64.5495 50.7794 64.0482 50.7794 63.4935C50.7794 62.9815 50.8754 62.4908 51.0674 62.0215C51.2594 61.5415 51.5474 61.1148 51.9314 60.7415C52.3154 60.3575 52.7901 60.0535 53.3554 59.8295C53.9314 59.6055 54.5981 59.4935 55.3554 59.4935C56.1234 59.4935 56.7954 59.5948 57.3714 59.7975C57.9581 59.9895 58.4488 60.2668 58.8434 60.6295C59.2381 60.9815 59.5368 61.3975 59.7394 61.8775C59.9421 62.3468 60.0434 62.8482 60.0434 63.3815C60.0434 63.8722 59.9528 64.3255 59.7714 64.7415C59.6008 65.1575 59.3874 65.5522 59.1314 65.9255C58.8861 66.2882 58.6301 66.6562 58.3634 67.0295L55.8034 70.5335C55.7608 70.5868 55.6968 70.6562 55.6114 70.7415C55.5261 70.8162 55.3981 70.8535 55.2274 70.8535H53.0994ZM55.3874 65.1415C55.7074 65.1415 55.9954 65.0775 56.2514 64.9495C56.5074 64.8108 56.7101 64.6188 56.8594 64.3735C57.0088 64.1282 57.0834 63.8295 57.0834 63.4775C57.0834 63.1255 57.0088 62.8268 56.8594 62.5815C56.7101 62.3255 56.5074 62.1335 56.2514 62.0055C55.9954 61.8668 55.7074 61.7975 55.3874 61.7975C55.0781 61.7975 54.7954 61.8668 54.5394 62.0055C54.2834 62.1335 54.0808 62.3255 53.9314 62.5815C53.7821 62.8268 53.7074 63.1255 53.7074 63.4775C53.7074 63.8295 53.7821 64.1282 53.9314 64.3735C54.0808 64.6188 54.2834 64.8108 54.5394 64.9495C54.7954 65.0775 55.0781 65.1415 55.3874 65.1415ZM62.3574 70.8535C62.1121 70.8535 61.9894 70.7468 61.9894 70.5335C61.9894 70.4695 62.0108 70.4108 62.0534 70.3575L69.9574 59.9575C70.0321 59.8615 70.1068 59.7868 70.1814 59.7335C70.2561 59.6802 70.3681 59.6535 70.5174 59.6535H71.6534C71.8988 59.6535 72.0214 59.7602 72.0214 59.9735C72.0214 60.0375 72.0001 60.0962 71.9574 60.1495L64.0534 70.5495C63.9788 70.6455 63.9041 70.7202 63.8294 70.7735C63.7548 70.8268 63.6428 70.8535 63.4934 70.8535H62.3574ZM70.4054 70.9335C69.6801 70.9335 69.0988 70.7415 68.6614 70.3575C68.2348 69.9735 67.9948 69.4615 67.9414 68.8215C67.9308 68.5442 67.9254 68.2988 67.9254 68.0855C67.9254 67.8722 67.9308 67.6162 67.9414 67.3175C67.9841 66.6668 68.2134 66.1495 68.6294 65.7655C69.0561 65.3708 69.6481 65.1735 70.4054 65.1735C71.1734 65.1735 71.7654 65.3708 72.1814 65.7655C72.5974 66.1495 72.8268 66.6668 72.8694 67.3175C72.8908 67.6162 72.9014 67.8722 72.9014 68.0855C72.9014 68.2988 72.8908 68.5442 72.8694 68.8215C72.8268 69.4615 72.5868 69.9735 72.1494 70.3575C71.7121 70.7415 71.1308 70.9335 70.4054 70.9335ZM70.4054 69.5255C70.5868 69.5255 70.7254 69.4882 70.8214 69.4135C70.9281 69.3282 71.0081 69.2268 71.0614 69.1095C71.1148 68.9815 71.1468 68.8535 71.1574 68.7255C71.1788 68.4802 71.1894 68.2562 71.1894 68.0535C71.1894 67.8508 71.1788 67.6322 71.1574 67.3975C71.1468 67.1948 71.0828 67.0135 70.9654 66.8535C70.8588 66.6828 70.6721 66.5975 70.4054 66.5975C70.1494 66.5975 69.9628 66.6828 69.8454 66.8535C69.7388 67.0135 69.6801 67.1948 69.6694 67.3975C69.6588 67.6322 69.6534 67.8508 69.6534 68.0535C69.6534 68.2562 69.6588 68.4802 69.6694 68.7255C69.6801 68.8535 69.7068 68.9815 69.7494 69.1095C69.8028 69.2268 69.8828 69.3282 69.9894 69.4135C70.0961 69.4882 70.2348 69.5255 70.4054 69.5255ZM63.6374 65.3015C62.9014 65.3015 62.3148 65.1148 61.8774 64.7415C61.4508 64.3575 61.2161 63.8455 61.1734 63.2055C61.1521 62.9282 61.1414 62.6828 61.1414 62.4695C61.1521 62.2562 61.1628 62.0002 61.1734 61.7015C61.2054 61.0615 61.4294 60.5495 61.8454 60.1655C62.2721 59.7708 62.8694 59.5735 63.6374 59.5735C64.4054 59.5735 64.9974 59.7708 65.4134 60.1655C65.8294 60.5495 66.0534 61.0615 66.0854 61.7015C66.1068 62.0002 66.1174 62.2562 66.1174 62.4695C66.1174 62.6828 66.1068 62.9282 66.0854 63.2055C66.0534 63.8455 65.8188 64.3575 65.3814 64.7415C64.9441 65.1148 64.3628 65.3015 63.6374 65.3015ZM63.6374 63.9095C63.8081 63.9095 63.9468 63.8722 64.0534 63.7975C64.1601 63.7228 64.2401 63.6268 64.2934 63.5095C64.3468 63.3815 64.3734 63.2535 64.3734 63.1255C64.3948 62.8802 64.4054 62.6562 64.4054 62.4535C64.4054 62.2508 64.3948 62.0322 64.3734 61.7975C64.3628 61.5948 64.2988 61.4135 64.1814 61.2535C64.0748 61.0828 63.8934 60.9975 63.6374 60.9975C63.3708 60.9975 63.1841 61.0828 63.0774 61.2535C62.9708 61.4135 62.9068 61.5948 62.8854 61.7975C62.8748 62.0322 62.8694 62.2508 62.8694 62.4535C62.8694 62.6562 62.8748 62.8802 62.8854 63.1255C62.9068 63.2535 62.9388 63.3815 62.9814 63.5095C63.0241 63.6268 63.0988 63.7228 63.2054 63.7975C63.3121 63.8722 63.4561 63.9095 63.6374 63.9095Z" fill="white"/>
</svg>
